<svg xmlns="http://www.w3.org/2000/svg" viewBox="0 0 90 90"><defs><style>.cls-1,.cls-2{fill:none;stroke:#d0d2d2;stroke-linecap:round;stroke-linejoin:round;}.cls-1{stroke-width:3.29px;}.cls-2{stroke-width:2.82px;}.cls-3{fill:#d0d2d2;}</style></defs><title>stats section arrow icon</title><g id="Layer_1" data-name="Layer 1"><line class="cls-1" x1="6.56" y1="57.32" x2="6.56" y2="57.41"/><path class="cls-2" d="M5.19,52A39.95,39.95,0,1,1,8.76,62.77"/><path class="cls-3" d="M32.86,47.57a3.09,3.09,0,0,1-.8-.5,1,1,0,0,1-.18-.16.51.51,0,0,1-.09-.16.78.78,0,0,1-.12-.21,1.64,1.64,0,0,0-.12-.22c0-.07-.05-.15-.08-.21a.78.78,0,0,1,0-.22.68.68,0,0,0,0-.21,1.22,1.22,0,0,1,0-.26,1.14,1.14,0,0,1,0-.25.81.81,0,0,1,.05-.21,1,1,0,0,1,0-.24c0-.08.05-.17.08-.27a.56.56,0,0,0,.12-.2.35.35,0,0,1,.12-.19.65.65,0,0,1,.11-.22.46.46,0,0,1,.16-.13,2.07,2.07,0,0,1,1-.61,2.89,2.89,0,0,1,1.21-.1.34.34,0,0,0,.23.08.63.63,0,0,1,.27.08l.2.1.19.09a.74.74,0,0,1,.22.14l.14.14.17.17a.5.5,0,0,1,.1.18.68.68,0,0,0,.1.21.85.85,0,0,1,.09.22.3.3,0,0,1,.1.19c0,.08,0,.17.06.28a1,1,0,0,1,.06.25c0,.09,0,.16,0,.22a2.5,2.5,0,0,1,0,.25.92.92,0,0,1-.06.25.54.54,0,0,1,0,.2.41.41,0,0,1-.12.2.78.78,0,0,1-.09.21,1,1,0,0,0-.1.21.55.55,0,0,1-.14.18.62.62,0,0,0-.13.18,1.06,1.06,0,0,0-.18.13,1,1,0,0,1-.18.14l-.19.1-.2.1-.23.09a.6.6,0,0,1-.27.06,1.11,1.11,0,0,1-.26.1l-.21,0A2.28,2.28,0,0,1,32.86,47.57Zm8.48,0a3.09,3.09,0,0,1-.8-.5,1,1,0,0,1-.18-.16.86.86,0,0,1-.1-.16.68.68,0,0,0-.1-.21,1.45,1.45,0,0,1-.09-.22.66.66,0,0,1-.12-.21.54.54,0,0,1,0-.22.68.68,0,0,0,0-.21.82.82,0,0,1,0-.26,2.5,2.5,0,0,1,0-.25.53.53,0,0,1,.06-.21.67.67,0,0,1,0-.24,1,1,0,0,1,.12-.27c0-.05.06-.12.09-.2l.1-.19a.59.59,0,0,1,.14-.22l.14-.13a2.43,2.43,0,0,1,3.35,0,1.86,1.86,0,0,1,.55.8,2.86,2.86,0,0,1,.16.91,2.28,2.28,0,0,1-.2.92,2.87,2.87,0,0,1-.51.8,1.84,1.84,0,0,1-.74.47,2.44,2.44,0,0,1-.9.16A2.23,2.23,0,0,1,41.34,47.57Zm6.15,6.6a2.15,2.15,0,0,1-1.29-2,1.79,1.79,0,0,1,.62-1.4L52.68,45,46.82,39.1a2.06,2.06,0,0,1-.62-1.49,1.91,1.91,0,0,1,.62-1.44,2,2,0,0,1,1.45-.59,2,2,0,0,1,1.44.59L57,43.51A2,2,0,0,1,57.64,45,1.85,1.85,0,0,1,57,46.4l-7.27,7.31a1.61,1.61,0,0,1-.68.46,2.11,2.11,0,0,1-.8.16A1.78,1.78,0,0,1,47.49,54.17Z"/></g></svg>